<?xml version="1.0" encoding="utf-8"?>
<!-- Generator: Adobe Illustrator 23.1.1, SVG Export Plug-In . SVG Version: 6.00 Build 0)  -->
<svg version="1.1" id="Ebene_1" xmlns="http://www.w3.org/2000/svg" xmlns:xlink="http://www.w3.org/1999/xlink" x="0px" y="0px"
	 viewBox="0 0 841.89 595.28" style="enable-background:new 0 0 841.89 595.28;" xml:space="preserve">
<style type="text/css">
	.st0{fill-rule:evenodd;clip-rule:evenodd;fill:#EF7D00;}
	.st1{fill:#4F2C1D;}
</style>
<path class="st0" d="M820.17,349.93c-6.08,2.22-9.81,4.35-14.46,6.12c-12.59,4.79-25.64,9.74-39.1,13.69
	c-3.77-2.73-7.78-5.33-12.81-7.41c-2.63-2.86-7.43-4.62-7.83-8.65c4.83,2.08,8.02,5.02,11.31,7.89c12.21,3.16,12.06-5.23,21.76-4.44
	c-2.25-1.34-2.66-3.02-4.28-4.65c-0.71-0.72-2.19-1.08-3.07-1.87c-4.38-3.9-12.05-9.96-15.36-14c-0.54-0.66-0.84-1.37-1.06-2.1
	c0.42-0.8,0.84-1.6,1.22-2.41c6-1.86,9.65-5.43,14.49-8.15c2.78,0.11,5.32,0.03,7.21-0.5c1.21-5.8-2.08-10.98-1.46-16.28
	c1.07-8.4,8.7-15.18,12.88-22.26c0.98,0.13,1.84,0.19,2.5,0.16c6.68-0.3,4.9-6.9,1.53-9.27c3.52-9.75,5.32-20.22,8.44-30.72
	c4.54-6.04,10.71-11.64,23.89-10.2c-4.47-8.51,11.81-7.71,11.56-16.28c-5.09-3.55-13.93-4.47-16.65-9.66
	c-5.7,1.13-10.77-2.37-16.63-3.08c-4.43-0.52-8.99,0.52-13.02-1c-3.67-1.4-5.74-5.51-8.69-8.15c-3.12-2.79-7.51-6.34-10.13-7.64
	c-16.44-8.12-43.13-3.24-65.12-6.11c-1.46,0.85-0.57,3.35-2.9,3.57c-14.63,1.03-30.26,9.52-43.43,5.1c3.58-1.56,4.56-5.06,6.53-7.67
	c2.44-3.12,8.61-5.56,10.08-8.11c3.22-5.44-0.43-12.61,8.01-14.78c3.29-0.84,6.36-0.48,10.12,0.51
	c14.95-3.05,28.05-21.29,11.58-29.01c-8.97,0.35-15.74-0.05-22.44,1.01c-11.15,1.77-18.39-28.19-30.39-29.34
	c-2.91-1.7,2.86-5.68-0.72-6.11c-16.25-0.51-33.87,17.65-46.31,17.28c-9.12-0.25-8.44-9.01-14.46-12.71
	c-13.94-0.76-22.77,4.66-33.32,4.58c10.1-18.7,31.62-29.36,40.54-48.86c2.31-1.96,6.89-2.3,7.25-5.62
	c-3.31-10.37-23.09-9.19-34.71-13.74c-38.89,21.89-91.61,35.96-86.14,29.53c19.44-33.15,44.89-25.09,54.98-64.79
	c-3.56-4.62-10.92-4.7-16.61-2.04c-13.43,6.24-22.13,28.6-43.42,22.92c-8.25,2.33-9.08,8.53-13,13.22
	c-14.27,16.92-33.8-4.71-49.2,11.35c-6.3,7.3-10.54,16.03-20.27,20.9c-16.03-4.35-31.77,2.46-44.85,5.06
	c-14.5-7.25-30.52-15.66-43.43-24.95c-3.84-2.73-10.43-7.55-13.74-8.12c-4.18-0.73-8.8,1.13-13.02,1.03
	c-7.23,5.75-21.08,6.87-29.69,11.7c-1.53,5.56-2.2,8.97-0.72,14.74c2.76,5.71,15.86,8.96,19.55,15.3
	c2.84,4.89,5.85,12.81,1.44,15.78c-5.87-0.4-8.12-5.94-13.72-8.68c-3.46-1.67-8.02-1.77-10.16-4.05c-2.44-2.61-0.89-6.34-2.9-9.17
	c-0.7,4.63-0.4,8.56-5.79,10.7c-5.93,0.09-8.03-2.5-15.2-1.53c-8.76-8.64-22.65-19.96-22.42-34.63c0.17-10.2,8.63-16.91,17.39-22.9
	c-26.44,5.91-27.57,35.4-11.62,50.91c-3.41,1.16-1.69,2.85-2.86,5.59c2.1,1.92,6.76,3.41,7.95,6.62c1.67,4.53-2.71,9.98-1.46,15.27
	c2.29,9.52-10.55,48.65-1.01,53.8c-2.95,4.05-9.01,2.98-13.72,3.55c-31.07,3.82-36.78,8.51-64.14,15.79
	c-15.48,4.11-32.44,8.59-44.15,14.25c-3.91,1.9-6.43,4.77-10.08,6.63c-6.43,3.23-14.4,5.26-20.27,9.14
	c-8.86,5.87-17.56,19.34-20.25,29.53c-3.12,11.78,2.19,23.52-8.01,31.06c-9.1-6.83-17.65-14.04-20.99-24.94
	c2.57-1.62,3.14-4.6,3.64-7.65c4.45-3.98,12.57-8.12,13.76-12.73c-10.81,4.29-22.52,7.99-26.78,15.79
	c-4.54,8.36,0.59,16.26,3.65,24.43c0.6,1.74,0,3.41,0.72,5.1c2.84,6.7,11.17,11.9,9.37,18.84c17.11,16.38,42.09,27.01,77.44,30.02
	c4.03,0.37,9.42-0.85,12.3,1.53c-4.6,7.92-12.91,13.16-18.09,21.89c-2.44,4.11-5.49,11.26-6.9,18.17
	c-9.87-2.31-20.21,1.76-23.87,5.77c-0.73,5.86,0.38,10.76,4.86,13.9c9.63,3.74,17.94,2.05,22.99-2.39c3.63,2.75,9.07,4.74,15,6.08
	c-1.35,5.21-1.27,10.52,1.41,15.05c0.09,0.16,0.21,0.34,0.34,0.52c-1.48-0.06-2.96-0.09-4.42-0.09c0.55,1.84,3.83,4.66,2.88,8.15
	c4.37,2.14,10.05,3.54,16.22,4.52c3.84,2.15,8.06,3.92,12.26,5.04c0.84,2.74,4.17,3.81,8.27,4.55c-9.93,7.1-24.38,13.96-21.56,26.1
	c0.34,1.46,2.97,3.78,4.33,6.1c3.22,5.5,4.41,9.79,10.84,11.7c6.59-1.49,5.05-6.7,7.27-10.18c3.58-5.64,12.49-8.28,18.07-12.21
	c1.41,0.21,2.61,0.21,3.69,0.09c-0.04,1.51-0.22,3.16-0.3,5.12c-0.17,3.75,0.38,7.27,1.11,10.72c-1.19,2.7-1.7,5.51-0.85,8.5
	c0.34,1.23,1.52,2.76,3.11,4.08c-0.17,13.3-13.53,26.38-8.4,37.92c1.2,2.7,4.7,4.44,5.15,7.15c0.65,4.02-1.73,7.76-1.65,12.52
	c0.04,1.91,1.11,4.02,1.48,6.39c0.36,2.43-0.39,5.19,0.04,7.42c0.26,1.31,1.69,2.74,2.69,4.17c3.66,5.2,8.08,9.15,18.45,10.54
	c-1.67,3.24-3.86,5.99-5.33,9.41c0.61,0.47,1.26,0.94,2.79,0.93c2.9-4.19,5.13-9.03,9.87-11.51c3.87-0.81,7.43-1.92,10.77-3.23
	c3.41,0.72,8.16,0.47,12.34,1.26c17.06-8.8,33.17-20.03,45.82-31.73c8.71-3.09,17.69-5.93,26.76-8.69c2.9-1.48,6.33-2.47,9.77-3.24
	c11.75-2.61,22.99-7.27,35.86-8.48c-0.34,0.76-0.68,1.51-0.98,2.27c-2.74,6.91-6.58,14.19-7.97,20.86c-0.36,1.85-2.08,4.51,2.2,6.11
	c6.75-9.24,9.65-21.22,15.62-31.03c0.49-0.03,0.98-0.06,1.54-0.03c1.06-0.57,2.1-1.15,3.14-1.74c12.2,25.68-17.25,54.34-0.79,79.11
	c10.69,5.74,28.16,0.35,28.95-8.64c4.77,2.57,8.5,5.88,18.09,5.1c4.79-2.25,6.32-6.77,10.86-9.17c7.5,10.68,13.19,22.6,28.92,27.48
	c-5.9-7.87-8.74-17.59-13.7-26.47c-4.88-8.63-12-18.57-8-27.98c7.27,9.8,9.44,24.75,15.95,35.63c2.27,3.82,4.1,10.28,11.58,9.67
	c1.57-17.19-15.16-33.34-13.76-51.92c7.89,0.41,14.55-1.6,20.27-4.07c1.78-3.85-3.82-10.72,2.14-13.23
	c0.55,0.14,1.08,0.29,1.62,0.43c0.31,1.21,0.95,2.21,2.1,2.84c0.64-0.5,1.14-1.12,1.6-1.78c14.07,4.31,26.34,10.84,42.16,13.1
	c0.42,0.34,0.85,0.67,1.31,1.01c2.34-0.26,5.09-0.14,7.22-0.61c1.12,0.03,2.23,0.09,3.32,0.26c7.36,1.21,14.55,4.26,22.46,5.11
	c19.72,2.12,23.94,9.72,34.73,18.32c4.2,3.37,11.85,10.85,15.93,11.71c4.86,1.03,12.77-0.24,15.92-3.06
	c1.02-3.74,0.09-10.91,7.23-11.19c6.51-0.23,8.14,5.71,14.48,5.08c2.95-0.29,6.64-3.27,7.23-5.59c1.98-7.56-9.39-14.86-16.67-19.85
	c1.63-1.94,2.86-4.11,5.11-5.59c18.88-4.56,34.88-11.15,48.41-19.48c1.88-1,3.59-2.12,5.15-3.32c2.24-1.52,4.41-3.09,6.51-4.72
	c0-0.42,0-0.85,0-1.27c0.75-0.8,1.5-1.6,2.24-2.4c1.75-1.92,3.18-4.02,4.69-5.99c8.29,0.17,17.51,0.72,24.26-0.21
	c0.22,0.28,0.71,0.42,1.41,0.46c0.21-0.32,0.21-0.54,0.09-0.69c0.77-0.14,1.49-0.31,2.17-0.5c0.29,0.04,0.58,0.07,0.86,0.11
	c0.24-0.13,0.37-0.31,0.44-0.53c1.36-0.5,2.47-1.15,3.28-1.98c6.46,0.37,14.12,2.34,22.17,3.61c2.48,0.39,4.97,1.13,7.33,1.49
	c5.95,0.92,11.77,0.47,15.89,3.14c-0.36,4.45-8.23,10.72-0.11,13.59c5.57-0.75,2.66-7.16,8.41-7.83c3.89-0.47,9.16,1.46,10.21,4.5
	c6.13,0.25,11.55-2.55,17.02-3.83c5.05-1.17,11.58-1.96,13.16-5.77c1.94-4.81-5.86-9.3-2.72-14.25c1.16-1.81,3.78-2.33,5.77-4.33
	c0.68-2.4,0.21-4.18,0.61-6.43c1.19-1.36,4.19-1.02,5.79-1.96c-1.43-0.42-2.09,0.4-2.89-0.35c2.88-3.81,12.77-3.96,17.34-8.23
	c1.65-1.56,2.01-4.01,3.88-5.73c3.58-3.31,9.93-5.32,11.92-8.59c1.22-2.06-0.61-2.98-1.29-4.89c-2.03-5.63-1.51-11.61-4.95-15.99
	c-0.91,4.01,1.83,10.1-0.91,13.2c-3.51-1.57-3.1-7.88-6.74-7.63c0.15,2.76,3.7,5.16,2.53,7.71c-2.22,0.08-4.29-1.99-5.25-3.9
	c-1.27-2.59-1.84-7.13,0.51-8.22c-4.85-4.99-3.62-13.15-7-18.92c8.38-1.6,10.45,6.21,14.44,9.48c3.32-0.56,4.62-2.07,8.62-1.31
	c0.83-3.35-2.91-8.13-4.57-10.62c-0.82-1.27-0.76-2.65-1.48-3.74c-1.75-2.62-11.26-9.03-15.62-9.9c-4.8-0.96-7.82,1-12.75,0.8
	c0.16-4.14-0.39-7.94-4.25-10c-0.3,2.35,1.97,6.16-1.24,7.54c-5.41-1.79-7-5.56-14.08-6.47c-6.49-2.5-11.29-5.89-15.93-9.35
	c10.17-3.26,20.39-6.48,30.58-9.71C815.06,355.16,831.87,345.68,820.17,349.93z M812.23,212.99c7.85,0.77,11.73,4.33,15.93,7.66
	c-2.57,3.54-5.51,7.39-10.16,7.63c-5.62,0.32-9.44-5.7-16.63-4.58c-1.67-2.12-1.87-5.19,0.74-6.6c-4.83-1.39-5.64-5.54-8-8.67
	C799.7,208.29,809.92,209.14,812.23,212.99z M698.68,411.19c2.49-0.14,7.46,0.25,8.55,1.65c2.38-0.6,7.38,0.06,9.49,1.16
	C715.59,419.21,691.93,417.7,698.68,411.19z M673.99,412.41c1.72-1.12,3.49-2.2,5.25-3.29c-0.2,1.45-0.11,2.57-0.59,3.74
	C677.13,412.76,675.56,412.6,673.99,412.41z M462.7,46.21c-0.66,1.37-0.3,3.53-3.6,3.05C458.99,47.31,460.27,46.33,462.7,46.21z
	 M436.69,73.19c5.81-8.31,12.51-15.96,20.97-22.42c0.64,0.24,1.29,0.46,1.44,1.03c-4.88,9.52-11.88,17.98-20.25,25.46
	c-2.65,2.36-4.86,6.26-10.14,6.1C428.82,78.21,433.12,75.95,436.69,73.19z M202.98,474.93c-2.37-4.56-10.75-8.83-5.76-16.09
	c3.7,1.11,7.18,2.36,10.5,3.71c-1.35,4.98-2.54,10.07-3.59,15.27C203.82,476.77,203.42,475.79,202.98,474.93z M238.43,467.02
	c0.83-1.54,1.78-3.17,2.71-4.92c1.16,2.88,2.15,5.86,4.69,8.02c5.45,1.48,6.96,5.02,13.3,6.06c0.74,1.91,4.62,2.81,4.25,4.67
	c-0.65,3.52-8.74,2.27-13.96,0.65c-1.21-1.85-3.2-3.28-6.48-4.05c-2.51-1.53-5.09-3.02-7.75-4.48
	C236.28,470.98,237.36,468.99,238.43,467.02z M234.8,244.58c-9.12,4.26-16.47,13.39-31.11,11.18c-2.31-2.68,2.67-2.7,2.91-5.08
	c-7.81,0.04-20.61,0.72-20.27,8.15c-6.45,0.15-16.98,2.58-21.01-2.05c0.51-5.92,6.41-8.04,11.6-10.69
	c9.37-0.17,18.28-2.1,27.48-2.04c14.23,0.15,26.51-5.39,38.34-4.58C242.71,242.71,238.16,243.01,234.8,244.58z M201.54,323.46
	c-2.23,8.95-3.19,18.83-5.06,27.34c-10.78-1.85-21.65-1.03-33.85-1.53c-8.71,2.03-17.89,3.34-25.94,5.53
	c1.12-9.5,5.23-18.98,11.98-24.72C157.6,322.53,181.43,325.66,201.54,323.46z M206.1,453.05c-0.08,0.19-0.13,0.4-0.07,0.66
	c0.48,0.46,1.75,0.5,2.84,0.64c0.11-0.41-0.31-1.38,0.81-2.27c0.36-0.01,0.74,0.01,1.11,0.02c-0.92,2.82-1.76,5.7-2.57,8.6
	c-1.61-0.86-3.19-2.09-5.32-3.24c-1.18-0.64-2.39-1.13-3.39-1.63C201.61,454.72,203.85,453.79,206.1,453.05z M233.54,476.05
	c5.07,3.04,10.07,6.09,15.31,8.93c4.92,2.68,9.95,5.04,14.2,8.26c-4.86,3.71-11.15,5.22-16.87,7.99
	c-11.34,5.48-20.9,12.45-30.56,19.51C218.4,505.33,225.91,490.25,233.54,476.05z M189.92,215.56c17.7-2.09,37.77-5.62,49.96,0
	c7.76,3.59,8.51,10.22,15.2,14.76c-17.58,5.11-38.06,4.1-60.81,4.57c-21.49,0.46-45.07-0.2-59.34-7.64
	C143.94,220.09,168.16,218.1,189.92,215.56z M161.64,534.64c-0.97-0.01-1.57-0.23-2.02-0.54c0.7-0.46,1.14-1.16,2.67-0.86
	C162.32,533.95,162.05,534.37,161.64,534.64z M179.84,541.62c-4.79-0.23-8.62,1.16-11.59-1.12c-3.59-2.75-2.84-11.18-1.55-16.17
	c1.09-4.15,3.65-8.09,5.42-10c1.07-7.57,4.56-12.9,10.97-15.5c2.49,1.48,2.98,3.8,6.99,3.51c3.39-0.24,4.02-3.74,1.77-5.71
	c2.57-3.42,7.39-5.03,10.3-7.95c-1.22,7.68-2.14,15.56-2.79,23.63c7.08,3.81,2.99,7.84,1.44,13.23c-0.62,2.01-0.58,4.32-0.59,6.62
	c-2.18,1.59-4.45,3.13-6.97,4.59C189.36,539,184.95,540.32,179.84,541.62z M234.07,538.29c1.94-2.34,4-4.61,6.12-6.87
	c4.23-1.78,8.58-3.45,12.99-5.05C247.91,531.11,242.37,535.67,234.07,538.29z M470.17,513.21c3.31,1.87,5.97,4.16,8.69,6.35
	c-6.38-2.05-12.24-4.47-17.6-7.25C464.12,512.47,467.14,512.77,470.17,513.21z M509.04,527.09c6.91-0.79,9.65,1.35,13,3.04
	C517.39,531.39,511.05,529.41,509.04,527.09z M743.67,490.67c-12.13-1.2-25.92-4.51-34.55-6.89c0.01-0.08,0.03-0.17,0.04-0.25
	c0.45-1.13,0.53-2.61,1.72-3.08c9.26,2.12,22.48,4.59,35.06,6.67c3.31,0.53,7.74,0.89,9.61,2.95
	C754.18,492.07,747.73,491.09,743.67,490.67z"/>
<path class="st1" d="M683.36,383.35c-22.17,0-32.9,10.38-32.9,32.9c0,29.73,48.74,29.38,48.74,57.53c0,10.38-6.68,14.42-16.36,14.42
	c-15.13,0-13.73-10.2-16.01-21.64c-2.82-1.58-5.98-2.28-9.33-2.28c-3.16,0-6.16,0.17-6.16,4.04c0,2.11,0.36,4.04,0.36,5.98
	c0,17.41,13.72,29.38,30.61,29.38c20.93,0,33.07-10.73,33.07-32.19c0-17.59-13.02-29.2-27.62-36.42
	c-5.98-2.99-21.11-12.49-21.11-20.06c0-8.62,5.45-16.54,14.61-16.54c21.28,0,9.32,20.59,18.65,20.59c6.68,0,10.91-1.76,10.91-9.33
	C710.8,393.38,699.54,383.35,683.36,383.35 M602.6,437.54c0-3.34,10.38-4.04,12.84-4.04c6.33,0,8.09,9.32,8.09,14.25
	c0,11.09-5.1,13.73-15.66,13.73h-4.75c-0.18-0.53-0.18-1.06-0.18-1.59C602.95,452.32,602.6,444.93,602.6,437.54 M588.7,488.74
	c0,11.26,0.53,12.14,12.14,12.14l2.64-1.41c0-7.92-0.35-16.01-0.35-23.93c3.34,0,6.86,0.7,10.2,0.7
	c4.05,9.15,7.21,24.46,19.88,24.46c3.16,0,5.45-3.17,5.45-6.16c0-1.23-0.53-2.64-1.41-3.51c-2.64-0.88-5.98-2.11-7.03-5.1l0.17,0.18
	c-2.29-3.52-3.87-8.8-5.1-12.84c10.38-4.22,11.43-15.48,11.43-25.51c0-13.37-5.1-28.85-20.93-28.85c-5.98,0-12.14,0.88-16.89,4.75
	c-2.29-2.64-6.86-2.64-10.03-2.64c-5.98,0-5.98,5.45-5.98,9.85c0,2.64,0.53,5.28,3.69,5.28c4.22,0,3.7,1.93,3.7,5.62
	C590.29,457.42,588.7,473.08,588.7,488.74 M531.7,453.2c0-9.5,1.59-19.7,13.37-19.7c5.98,0,11.44,2.81,11.44,9.5
	c0,7.92-3.52,14.95-12.32,14.95c-3.87,0-8.62-0.7-12.31-1.76C531.7,455.13,531.7,454.26,531.7,453.2 M532.23,470.09
	c4.39,0.7,8.97,1.93,13.55,1.93c18.3,0,24.98-11.08,24.98-28.15c0-19.18-9.68-25.86-28.14-25.86c-20.23,0-25.51,11.61-25.51,30.26
	v8.98c0,17.94,0.53,44.68,24.98,44.68c16.72,0,28.67-5.28,28.67-23.93c0-4.93-3.34-4.93-7.04-4.93c-13.19,0,1.23,14.07-19.18,14.07
	C533.81,487.15,532.23,479.06,532.23,470.09 M450.14,500.7c1.59,0.7,23.4,0.88,26.74,0.88h6.68c11.61,0,23.75-8.62,23.75-20.94
	c0-10.2-4.75-19.7-16.19-19.7c-3.87,0-7.21,3.7-7.21,7.57c0,8.45,8.97,5.81,8.97,10.73c0,7.92-5.28,8.8-11.78,8.98
	c-4.93,0-9.86,0.18-14.78,0.18h-0.53c10.38-16.02,21.46-35.37,29.02-52.78c-0.35-1.93-0.7-3.87-0.88-5.8v-0.88
	c-0.35-4.04-0.71-8.45-5.98-8.45c-5.98,0-11.79-0.53-17.77-0.53c-12.66,0-22.16,0.53-22.16,16.01c0,5.45,4.57,5.8,8.79,5.8
	c2.29,0,3.87-0.52,5.28-2.46c0-7.21,12.14-2.11,15.48-4.75c-0.7,5.46-25.33,47.33-30.08,54.54
	C447.51,492.78,446.62,498.24,450.14,500.7 M427.62,485.57c-0.35-0.88-0.7-38.36-0.7-43.63c0-5.11,0.53-10.38,0.53-15.48
	c0-5.28,0.88-9.15-5.8-9.15c-1.94,0-3.7-0.18-5.11,0c-2.46,0.36-3.87,1.58-3.87,5.62c0,6.69,1.05,13.2,1.05,19.89v12.14
	c0,11.96-1.75,29.2,1.94,40.29c1.23,3.69,7.75,5.63,11.26,5.63c7.57,0,5.11-6.16,6.15-11.08c-0.7-2.29-1.93-3.17-4.22-3.7l0.18,0.17
	L427.62,485.57z M378.45,450.74c-1.23,16.54-0.18,33.42-0.18,49.96c0,22.69,11.79,38.71,35.71,38.71c11.08,0,25.68-5.81,25.68-18.83
	c0-3-2.64-5.46-5.62-5.46c-10.56,0-4.93,9.68-19.71,9.68c-22.34,0-22.17-20.05-21.99-37.12c0-11.44,0.53-23.05,0.53-41.87
	c0-14.95-3.34-29.03-21.29-29.03c-5.8,0-11.44,2.64-16.19,5.98h-0.18c0-1.58-6.16-5.28-8.09-5.28c-2.81,0-9.68,0.53-9.68,4.39
	c0,2.82,0.7,9.86,3.52,11.09c2.82,0,3.17,3.7,3.17,5.8c0,14.78-1.06,29.56-1.06,44.33c0,4.93-0.88,10.38,1.41,14.61
	c1.06,1.94,3.87,2.64,6.16,2.64c6.86,0,8.27-1.41,8.27-8.44c0-5.63,0.54-11.08,0.54-16.71c0-10.73-0.71-21.46-0.71-32.2
	c0-8.27,3.34-10.9,11.61-10.9s8.09,10.55,8.09,17.06L378.45,450.74L378.45,450.74z M310.54,451.44c0,10.73,2.82,37.12-13.37,37.12
	c-20.76,0-17.76-14.43-17.76-30.26c0-15.48,1.75-24.98,19.7-24.98C310.72,433.32,310.54,442.47,310.54,451.44 M324.97,453.2
	c0-16.36-2.28-34.12-22.87-34.12c-35.89,0-37.47,19.35-37.47,49.43c0,22.52,5.1,32.89,29.38,32.89c21.29,0,28.33-5.98,29.91-26.74
	C324.44,467.45,324.97,460.41,324.97,453.2 M233.31,498.59c0,0,14.61,5.45,14.61-0.71c0.35-23.75,1.23-41.87,1.23-54.18
	c0-13.37-1.58-23.23-18.12-23.23c-4.75,0-4.93,3.52-4.93,7.21c0,2.64,0.7,4.93,2.46,7.04c3.88,0.88,5.63,4.75,5.63,8.27
	c0,4.05-0.18,3.87-0.18,7.92C234.01,460.76,233.49,486.97,233.31,498.59 M170.5,501.05c13.9,0,27.97,0.35,42.05,0.35
	c5.63,0,9.32-4.57,9.32-14.6c0-3.69-5.46-2.99-10.03-2.99c-3.7,0,1.93,3.87-10.38,4.04l-14.07,0.18c-2.11,0-4.4-0.18-6.51-0.18
	c0-12.49,0.7-25.16,0.7-37.64c0-8.97-0.35-17.77-0.7-26.75c-0.53-16.36,2.11-36.59-23.57-36.59c-21.99,0-30.79,17.06-30.79,33.25
	c0,17.59,11.08,32.19,20.59,34.3c0.7,0.17,1.58,0.53,2.46,0.53c3.34,0,9.15-2.99,9.15-6.86c0-7.39-16.54-9.86-16.54-25.69
	c0-7.74,1.76-19.88,15.31-19.88c13.38,0,9.32,35.36,9.32,41.52c0,10.21-0.7,20.41-0.7,30.61c0,7.57,0.35,14.43,0.35,21.99
	C166.45,498.42,168.74,501.05,170.5,501.05 M423.05,409.39c-5.1,0-11.08-4.23-11.08-9.68v-2.29c0-4.22,3.34-8.44,7.74-8.44
	c5.63,0,11.61,3.87,11.61,10.03C431.32,402.88,427.27,409.39,423.05,409.39"/>
<path class="st1" d="M539.1,225.03c-0.84,1.48-1.7,2.99-2.5,4.52c-3.2-0.33-6.51-0.55-9.93-0.64c-5.32-0.15-9.77-0.1-13.53,0.13
	c-4.37,0.13-8.24,0.65-12.01,1.16c-3.36,0.48-6.88,1.01-9.86,1.68c-11.23,2.43-18.21,5.49-18.5,5.61c-1.67,0.73-2.53,2.6-2,4.35
	c0.53,1.74,2.29,2.83,4.07,2.5c0.07-0.01,7.13-1.24,18.11-2.21c6.99-0.59,13.9-0.85,20.6-0.73c3.82,0,7.93,0.22,12.29,0.47
	l0.27,0.01c2.31,0.19,4.47,0.4,6.54,0.63c-0.24,3.39-0.03,6.76,0.2,10.07c0.18,2.74,0.36,5.39,0.23,7.78
	c-1.59,1.31-3.12,2.81-3.92,3.41c-42.56,32.23-87.47-5.18-104.81-22.75c-0.91-0.92-2.14-1.43-3.42-1.43h-0.05
	c-1.3,0.01-2.55,0.55-3.45,1.5c-13.21,13.96-59.8,56.9-104.73,22.88c-0.93-0.7-2.43-2.19-3.9-3.23c-0.16-2.49,0.01-5.27,0.21-8.16
	c0.22-3.31,0.43-6.69,0.19-10.07c2.05-0.23,4.18-0.44,6.45-0.62l0.36-0.02c4.36-0.25,8.48-0.47,12.35-0.47
	c6.64-0.11,13.55,0.14,20.53,0.73c11,0.97,18.06,2.2,18.13,2.21c1.79,0.33,3.55-0.76,4.07-2.5c0.53-1.75-0.33-3.62-2-4.35
	c-0.29-0.13-7.28-3.18-18.48-5.61c-3-0.68-6.53-1.21-9.91-1.69c-3.74-0.5-7.62-1.03-11.88-1.16c-3.86-0.22-8.31-0.27-13.62-0.13
	c-3.42,0.09-6.73,0.31-9.93,0.64c-0.8-1.53-1.65-3.04-2.5-4.52c-1.8-3.16-3.51-6.2-4.39-9.07c1.79-0.02,3.58-0.02,5.36,0.02
	c5.36,0.14,9.87,0.42,13.79,0.86c4.27,0.48,8.44,0.97,12.46,1.72c6.63,1.18,13.42,2.68,20.16,4.45c10.67,2.8,17.41,5.26,17.48,5.28
	c1.72,0.64,3.65-0.13,4.47-1.77s0.28-3.64-1.26-4.64c-0.27-0.18-6.76-4.37-18.27-9.09c-2.84-1.15-6.04-2.31-9.51-3.46
	c-2.98-0.99-6.97-2.24-11.44-3.22c-4.75-1.14-9.11-1.98-13.46-2.59c-4.43-0.48-9.6-1.01-14.77-1.27c-0.68-0.03-1.37-0.04-2.05-0.06
	c0.46-0.84,0.94-1.69,1.43-2.56c1.75-3.08,3.56-6.24,4.79-9.63c1.97,0.24,3.94,0.5,5.91,0.77l1.79,0.28c4.62,0.74,9,1.45,13.19,2.43
	c8.29,1.82,16.47,4,23.72,6.32c12.32,3.77,19.98,7.09,20.05,7.12c1.71,0.75,3.71,0.06,4.61-1.57c0.9-1.64,0.4-3.69-1.15-4.73
	c-0.31-0.21-7.68-5.13-19.96-10.6c-3.05-1.3-6.85-2.9-11.08-4.35c-3.95-1.35-8.55-2.9-13.42-4.22c-4.45-1.16-9.78-2.49-15.61-3.57
	c-2.06-0.37-4.19-0.7-6.35-1c-0.05-1.61-0.16-3.22-0.26-4.8c-0.35-5.08-0.67-9.89,0.93-13.2c1.64-3.42,5.65-6.18,9.89-9.11
	c3.91-2.69,7.94-5.47,10.99-9.29c1.48-1.86,2.67-3.88,3.71-5.98c3.34,4.37,7.81,8.58,13.57,12.76c6.71,4.72,13.63,8.22,20.63,10.4
	c37.88,11.36,47.18,43.72,47.55,45.07c0.57,2.1,2.46,3.55,4.64,3.55h0.01c2.16,0,4.06-1.45,4.64-3.54
	c0.38-1.37,9.68-33.73,47.61-45.11c7.52-2.36,14.48-5.87,20.62-10.42c5.73-4.15,10.2-8.37,13.53-12.74
	c1.04,2.09,2.23,4.12,3.71,5.98c3.05,3.82,7.09,6.61,10.98,9.3c4.25,2.93,8.25,5.69,9.9,9.11c1.6,3.31,1.28,8.12,0.94,13.2
	c-0.1,1.59-0.21,3.19-0.27,4.8c-2.16,0.3-4.3,0.64-6.37,1.01c-5.8,1.07-11.14,2.4-15.62,3.57c-4.84,1.31-9.45,2.86-13.39,4.21
	c-4.23,1.44-8.03,3.05-11.14,4.37c-12.22,5.45-19.59,10.37-19.9,10.58c-1.55,1.04-2.05,3.09-1.16,4.73c0.9,1.64,2.9,2.32,4.61,1.57
	c0.08-0.03,7.74-3.36,20.1-7.14c7.21-2.3,15.39-4.48,23.73-6.31c4.15-0.97,8.52-1.68,13.15-2.42l1.7-0.28
	c2.01-0.27,4.01-0.54,6-0.78c1.23,3.39,3.03,6.55,4.79,9.63c0.49,0.87,0.97,1.72,1.43,2.56c-0.68,0.02-1.37,0.03-2.06,0.06
	c-5.16,0.26-10.33,0.79-14.87,1.29c-4.24,0.59-8.61,1.43-13.28,2.55c-4.54,0.99-8.54,2.25-11.52,3.23
	c-3.47,1.15-6.66,2.31-9.53,3.47c-11.49,4.72-17.98,8.91-18.25,9.09c-1.54,1-2.08,2.99-1.26,4.64c0.82,1.65,2.74,2.41,4.47,1.77
	c0.07-0.03,6.81-2.48,17.48-5.28c6.74-1.77,13.52-3.26,20.19-4.45c4-0.75,8.16-1.24,12.43-1.72c3.92-0.44,8.43-0.72,13.79-0.86
	c1.78-0.04,3.56-0.04,5.36-0.02C542.61,218.83,540.91,221.87,539.1,225.03 M485,312.52c-4.71,0.74-9.59,1.52-14.05,3.67
	c-4.37,2.11-7.96,5.4-11.43,8.59c-3.82,3.5-7.42,6.8-11.16,7.66c-0.7,0.16-1.44,0.24-2.27,0.24c-3.13,0-6.79-1.1-10.66-2.27
	c-4.63-1.39-9.42-2.83-14.48-2.83s-9.85,1.45-14.47,2.83c-3.88,1.17-7.55,2.27-10.67,2.27c-0.83,0-1.58-0.08-2.27-0.24
	c-3.75-0.86-7.35-4.16-11.17-7.66c-3.46-3.18-7.05-6.48-11.42-8.59c-4.46-2.15-9.33-2.93-14.05-3.67
	c-5.06-0.81-9.83-1.57-12.74-3.89c-0.22-0.18-0.43-0.39-0.63-0.59c17.49-12.86,44.34-27.71,77.43-30.3
	c33.09,2.59,59.93,17.44,77.43,30.3c-0.21,0.2-0.42,0.41-0.64,0.59C494.83,310.95,490.05,311.71,485,312.52 M344.15,116.03
	c2.91-2.33,7.68-3.08,12.74-3.88c4.71-0.75,9.58-1.53,14.05-3.68c4.37-2.11,7.96-5.4,11.42-8.59c3.82-3.5,7.42-6.81,11.17-7.66
	c0.7-0.16,1.44-0.23,2.28-0.23c3.11,0,6.78,1.1,10.66,2.27c4.62,1.39,9.41,2.83,14.47,2.83c5.05,0,9.84-1.44,14.48-2.83
	c3.88-1.17,7.54-2.27,10.66-2.27c0.83,0,1.57,0.08,2.27,0.23c3.75,0.85,7.35,4.16,11.17,7.66c3.48,3.18,7.06,6.48,11.43,8.59
	c4.46,2.14,9.33,2.92,14.05,3.67c5.05,0.81,9.83,1.57,12.74,3.89c1.91,1.52,3.33,3.96,4.62,6.78c-6.17,3.59-28.67,13.71-81,9.24
	c-0.27-0.03-0.55-0.03-0.82,0c-51.69,4.42-74.55-5.64-80.98-9.29C340.84,119.96,342.26,117.54,344.15,116.03 M653.05,218.73
	c-0.1-0.13-2.74-3.38-7.68-8.75c-0.1-0.11-0.2-0.21-0.3-0.3c-1.03-0.87-2.07-1.87-3.18-2.93c-1.9-1.81-4.04-3.86-6.7-5.93
	l-6.29-4.72c-0.09-0.07-0.2-0.14-0.29-0.19c-2.49-1.51-4.98-3.02-7.68-4.56c-5.92-3.24-11.94-5.96-17.75-8.01
	c-2.28-0.93-4.6-1.59-6.85-2.23c-0.99-0.28-1.98-0.56-3.09-0.9c-2.16-0.58-4.37-1.06-6.51-1.51c-1.16-0.25-2.32-0.5-3.66-0.8
	c-7.91-1.34-14.35-2.07-20.3-2.29c-3.23-0.13-6.57-0.26-9.83-0.13c-2.16,0-4.37,0.12-6.51,0.23c-0.44,0.03-0.88,0.05-1.33,0.07
	c0.05-1.01,0.12-2.05,0.19-3.1c0.41-6.12,0.88-13.06-2.08-19.2c-3.02-6.25-8.79-10.23-13.88-13.75c-3.37-2.32-6.54-4.52-8.53-7
	c-2-2.51-3.45-6.11-4.97-9.93c-2.29-5.73-4.89-12.21-10.27-16.52c-5.37-4.28-12.25-5.37-18.33-6.34c-4.08-0.65-7.93-1.26-10.84-2.67
	c-2.82-1.36-5.64-3.95-8.63-6.69c-4.57-4.21-9.77-8.97-16.59-10.52c-1.55-0.36-3.21-0.54-4.91-0.54c-4.88,0-9.58,1.41-14.12,2.78
	c-4.02,1.21-7.8,2.34-11.15,2.34s-7.14-1.14-11.16-2.34c-4.55-1.37-9.25-2.78-14.12-2.78c-1.7,0-3.35,0.18-4.9,0.54
	c-6.83,1.55-12.02,6.31-16.6,10.52c-2.99,2.74-5.82,5.33-8.64,6.69c-2.92,1.41-6.77,2.02-10.84,2.67
	c-6.08,0.97-12.96,2.06-18.33,6.34c-5.38,4.31-7.98,10.79-10.27,16.52c-1.52,3.82-2.97,7.42-4.97,9.93c-1.98,2.48-5.17,4.68-8.53,7
	c-5.09,3.51-10.87,7.49-13.88,13.75c-2.96,6.14-2.49,13.08-2.08,19.2c0.07,1.05,0.14,2.08,0.19,3.09c-0.45-0.02-0.88-0.04-1.33-0.07
	c-2.14-0.11-4.37-0.18-6.38-0.23c-3.4-0.12-6.73,0-9.96,0.13c-5.95,0.22-12.4,0.95-20.51,2.33c-1.14,0.27-2.29,0.51-3.46,0.76
	c-2.14,0.46-4.34,0.93-6.63,1.55c-1,0.31-1.99,0.59-2.97,0.87c-2.25,0.64-4.57,1.3-6.72,2.17c-5.96,2.12-11.98,4.83-17.96,8.11
	c-2.64,1.51-5.13,3.02-7.61,4.53c-0.1,0.05-0.2,0.12-0.29,0.19l-6.36,4.77c-2.6,2.02-4.74,4.07-6.64,5.88
	c-1.11,1.07-2.15,2.07-3.18,2.93c-0.11,0.09-0.21,0.2-0.31,0.3c-4.95,5.37-7.58,8.62-7.69,8.75c-1.16,1.44-1.04,3.53,0.29,4.82
	c0.7,0.68,1.6,1.02,2.51,1.02c0.82,0,1.64-0.28,2.31-0.85c0,0,3.18-2.69,8.79-7.48c1.08-0.75,2.17-1.56,3.32-2.42
	c2.13-1.59,4.33-3.23,7-4.85c1.95-1.21,4.2-2.55,6.45-3.88c2.44-1.23,4.88-2.47,7.28-3.74c5.69-2.57,11.13-4.63,16.75-6.34
	c1.63-0.55,3.4-1,5.27-1.46c1.22-0.3,2.44-0.6,3.64-0.93l4.38-0.87c1.64-0.33,3.28-0.65,4.71-0.95l0.78-0.12
	c2.91-0.45,5.65-0.88,8.36-1.09c1.35-0.05,2.7-0.18,4.07-0.3c1.78-0.16,3.46-0.32,5.39-0.32c3.06-0.12,5.95-0.25,9-0.12
	c1.71,0,3.52,0.09,5.31,0.2c-0.76,1.51-1.65,3.07-2.56,4.67c-1.61,2.82-3.32,5.84-4.6,9.08c-5.08,0.43-10.05,1.41-15.51,2.59
	c-0.07,0.02-0.16,0.04-0.23,0.06c-0.86,0.25-1.7,0.47-2.56,0.7c-1.77,0.48-3.59,0.97-5.57,1.64c-0.87,0.32-1.73,0.63-2.57,0.93
	c-1.68,0.6-3.42,1.22-5.11,1.99c-4.75,2.04-9.46,4.51-14.14,7.42c-1.99,1.36-3.98,2.73-5.82,3.97c-0.13,0.08-0.25,0.18-0.37,0.28
	c-1.63,1.43-3.25,2.75-4.87,4.06c-2.28,1.94-4.1,3.87-5.71,5.58c-0.66,0.7-1.28,1.37-1.88,1.95c-0.11,0.11-0.21,0.23-0.31,0.36
	l-5.55,7.22c-1.11,1.46-0.94,3.52,0.39,4.78c0.69,0.65,1.57,0.98,2.46,0.98c0.83,0,1.66-0.29,2.34-0.86
	c0.1-0.09,2.65-2.27,6.85-6.15c1.07-0.76,2.17-1.62,3.33-2.52c1.46-1.13,2.97-2.3,4.65-3.48c1.78-1.06,3.58-2.25,5.15-3.31
	c1.82-0.98,3.77-2.08,5.53-3.08c4.9-2.34,9.05-4.12,13.1-5.6c1.48-0.56,3.08-1.02,4.77-1.51c0.74-0.21,1.49-0.43,2.24-0.66
	c1.46-0.45,3.07-0.81,4.62-1.17c0.87-0.2,1.72-0.39,2.57-0.6c1.27-0.19,2.52-0.4,3.76-0.62c1.23-0.21,2.47-0.42,3.57-0.58
	c1.11-0.11,2.19-0.26,3.27-0.41c0.03,0,0.06,0,0.09-0.01c1.04,5.23,3.71,9.93,6.13,14.18c0.13,0.24,0.27,0.48,0.41,0.71
	c-2.37,0.51-4.79,1.07-7.27,1.72c-6.02,1.54-11.81,3.82-16.18,5.65c-0.08,0.03-0.16,0.07-0.23,0.11c-0.98,0.5-1.99,0.95-3,1.41
	c-1.52,0.69-3.1,1.4-4.87,2.39c-1.1,0.71-2.24,1.36-3.36,2.01c-1.25,0.72-2.5,1.44-3.71,2.23c-4.38,2.83-8.71,6.12-12.97,9.86
	c-1.86,1.75-3.55,3.37-5.37,5.11c-0.89,0.93-1.72,1.9-2.54,2.84c-0.61,0.71-1.2,1.4-1.8,2.04c-2.24,2.42-3.93,4.92-5.29,6.93
	c-0.45,0.67-0.88,1.3-1.3,1.89c-0.07,0.1-0.13,0.2-0.19,0.3c-2.95,5.16-4.51,8.05-4.51,8.05c-0.87,1.64-0.36,3.68,1.2,4.69
	c0.6,0.4,1.29,0.59,1.96,0.59c1.07,0,2.12-0.48,2.82-1.37c0.01-0.01,2.11-2.69,5.74-7.21c0.57-0.61,1.18-1.27,1.8-1.96
	c1.51-1.66,3.21-3.54,5.24-5.44c1.33-1.31,2.81-2.62,4.35-3.99c0.81-0.66,1.67-1.32,2.54-1.99c0.94-0.73,1.9-1.46,2.67-2.1
	c4.06-2.89,8.16-5.55,12.3-7.98c1.15-0.73,2.47-1.38,3.87-2.05c0.9-0.44,1.8-0.88,2.69-1.35l2.22-0.94c1.57-0.66,3.18-1.34,4.8-2.08
	c0.79-0.28,1.57-0.57,2.35-0.86c1.57-0.59,3.15-1.17,4.67-1.64c1.1-0.31,2.17-0.64,3.23-0.98c1.42-0.44,2.81-0.88,4.29-1.25
	c2.72-0.76,5.54-1.41,8.47-1.99c0.11,2.38-0.06,5-0.25,7.71c-0.41,6.13-0.88,13.06,2.08,19.2c3.02,6.25,8.79,10.24,13.88,13.75
	c3.36,2.32,6.54,4.52,8.53,7c2,2.5,3.45,6.11,4.97,9.93c2.29,5.72,4.89,12.21,10.27,16.51c5.37,4.29,12.25,5.38,18.33,6.35
	c4.08,0.64,7.92,1.25,10.84,2.67c2.82,1.36,5.64,3.94,8.63,6.69c4.58,4.2,9.77,8.96,16.61,10.52c1.55,0.35,3.2,0.53,4.9,0.53
	c4.88,0,9.58-1.41,14.12-2.78c4.01-1.2,7.8-2.34,11.16-2.34c3.35,0,7.13,1.14,11.15,2.34c4.55,1.37,9.25,2.78,14.12,2.78
	c1.7,0,3.35-0.18,4.9-0.53c6.83-1.55,12.02-6.31,16.6-10.52c2.99-2.75,5.82-5.33,8.63-6.69c2.92-1.41,6.77-2.02,10.85-2.67
	c6.08-0.97,12.96-2.06,18.33-6.35c5.38-4.3,7.98-10.78,10.27-16.51c1.52-3.82,2.97-7.43,4.97-9.93c1.98-2.48,5.16-4.68,8.53-7
	c5.09-3.51,10.87-7.5,13.88-13.75c2.96-6.14,2.5-13.08,2.08-19.2c-0.18-2.71-0.35-5.32-0.25-7.71c2.94,0.58,5.77,1.24,8.55,2
	c1.39,0.36,2.77,0.79,4.19,1.24c1.06,0.33,2.14,0.67,3.18,0.96c1.58,0.48,3.16,1.06,4.73,1.65c0.78,0.29,1.57,0.58,2.35,0.86
	c1.62,0.74,3.24,1.42,4.81,2.08l2.21,0.94c0.88,0.47,1.79,0.91,2.69,1.35c1.39,0.68,2.71,1.32,3.97,2.12
	c4.04,2.37,8.14,5.03,12.01,7.79c0.96,0.77,1.92,1.51,2.85,2.24c0.87,0.68,1.72,1.33,2.42,1.9c1.66,1.46,3.14,2.78,4.54,4.16
	c1.95,1.82,3.66,3.7,5.16,5.36c0.63,0.69,1.23,1.35,1.81,1.96c3.61,4.52,5.73,7.2,5.73,7.21c0.7,0.89,1.75,1.37,2.82,1.37
	c0.68,0,1.35-0.19,1.96-0.59c1.55-1.01,2.07-3.05,1.19-4.69c0,0-1.55-2.9-4.5-8.05c-0.06-0.1-0.13-0.2-0.2-0.3
	c-0.43-0.59-0.85-1.23-1.3-1.89c-1.36-2.01-3.05-4.5-5.29-6.92c-0.59-0.65-1.19-1.34-1.8-2.05c-0.82-0.94-1.66-1.91-2.65-2.96
	c-1.7-1.62-3.39-3.25-5.34-5.09c-4.17-3.65-8.5-6.93-12.88-9.77c-1.21-0.78-2.46-1.51-3.71-2.22c-1.13-0.65-2.26-1.3-3.56-2.13
	c-1.57-0.87-3.15-1.58-4.67-2.27c-1.01-0.46-2.01-0.91-3-1.41c-0.08-0.04-0.16-0.08-0.24-0.11c-4.37-1.83-10.16-4.11-16.16-5.64
	c-2.5-0.66-4.93-1.22-7.29-1.73c0.14-0.24,0.27-0.47,0.41-0.71c2.42-4.25,5.09-8.95,6.13-14.18c0.03,0,0.05,0,0.09,0.01
	c1.08,0.15,2.16,0.3,3.1,0.39c1.27,0.18,2.51,0.39,3.74,0.6c1.25,0.21,2.49,0.43,3.76,0.62c0.84,0.21,1.7,0.4,2.57,0.6
	c1.55,0.36,3.15,0.72,4.62,1.17c0.75,0.23,1.5,0.45,2.24,0.66c1.69,0.49,3.28,0.95,4.8,1.52c4,1.46,8.16,3.24,12.86,5.49
	c1.96,1.1,3.92,2.19,5.74,3.18c1.91,1.29,3.53,2.35,5.15,3.31c1.68,1.18,3.19,2.35,4.65,3.48c1.16,0.9,2.26,1.75,3.33,2.51
	c4.2,3.88,6.74,6.07,6.85,6.16c0.68,0.57,1.51,0.86,2.34,0.86c0.89,0,1.77-0.33,2.46-0.98c1.33-1.26,1.5-3.32,0.38-4.78l-5.54-7.22
	c-0.1-0.13-0.2-0.25-0.31-0.36c-0.59-0.59-1.22-1.25-1.88-1.95c-1.6-1.71-3.43-3.64-5.85-5.69c-1.48-1.2-3.11-2.52-4.73-3.95
	c-0.12-0.1-0.24-0.2-0.37-0.28c-1.84-1.24-3.83-2.6-5.95-4.05c-4.55-2.83-9.26-5.3-13.94-7.31c-1.76-0.8-3.5-1.42-5.18-2.02
	c-0.84-0.3-1.7-0.61-2.71-0.98c-1.84-0.61-3.67-1.11-5.43-1.58c-0.85-0.23-1.71-0.46-2.56-0.7c-0.08-0.02-0.16-0.04-0.23-0.06
	c-5.49-1.18-10.48-2.17-15.51-2.59c-1.27-3.23-2.99-6.25-4.6-9.08c-0.91-1.6-1.8-3.16-2.56-4.67c1.79-0.1,3.61-0.2,5.45-0.2
	c2.9-0.12,5.8,0,9.09,0.12c1.7,0,3.38,0.15,5.16,0.32c1.36,0.12,2.72,0.25,3.94,0.29c2.83,0.22,5.58,0.64,8.49,1.09l0.61,0.09
	c1.61,0.32,3.26,0.65,4.91,0.98l4.34,0.87c1.2,0.33,2.42,0.63,3.63,0.93c1.87,0.46,3.65,0.9,5.39,1.49
	c5.51,1.67,10.95,3.74,16.45,6.22c2.59,1.36,5.03,2.59,7.47,3.82c2.25,1.34,4.49,2.67,6.48,3.9c2.64,1.6,4.84,3.25,6.96,4.83
	c1.15,0.86,2.25,1.67,3.32,2.42c5.61,4.79,8.79,7.48,8.79,7.48c0.67,0.57,1.49,0.85,2.31,0.85c0.91,0,1.81-0.34,2.5-1.02
	C654.09,222.26,654.21,220.17,653.05,218.73"/>
</svg>
